<svg id="Layer_1" data-name="Layer 1" xmlns="http://www.w3.org/2000/svg" viewBox="0 0 129.63 59.88"><defs><style>.cls-1{fill:#231f20;}.cls-2{fill:none;stroke:#231f20;stroke-miterlimit:10;}</style></defs><title>cozzette-logo</title><path class="cls-1" d="M16.15,31.29l1.94,2.9-.27.18a.8.8,0,0,0-.47-.27,3.62,3.62,0,0,0-1,.49,14.37,14.37,0,0,1-3,1.37,10.18,10.18,0,0,1-2.85.35A8.87,8.87,0,0,1,5.1,34.76a6.57,6.57,0,0,1-2-2.26,7.08,7.08,0,0,1-.83-3.4,6.87,6.87,0,0,1,1.48-4.4Q6,21.9,10.52,21.9a10.21,10.21,0,0,1,2.84.35,14.52,14.52,0,0,1,3,1.37,3.67,3.67,0,0,0,1,.48.8.8,0,0,0,.47-.27l.27.18-1.94,2.91-.28-.18a2.25,2.25,0,0,0,0-.27.78.78,0,0,0-.26-.55,4.32,4.32,0,0,0-.91-.63,7.69,7.69,0,0,0-3.83-1,5.73,5.73,0,0,0-3.81,1.19,4.82,4.82,0,0,0,0,7.3A5.73,5.73,0,0,0,10.9,34a7.67,7.67,0,0,0,3.83-1,4.28,4.28,0,0,0,.91-.63.79.79,0,0,0,.26-.56,2,2,0,0,0,0-.27Z"/><path class="cls-1" d="M27.44,21.9a8.19,8.19,0,0,1,5.78,2,7.24,7.24,0,0,1,1.18,9.07q-2.11,3.39-6.94,3.39a8.15,8.15,0,0,1-5.75-2A6.86,6.86,0,0,1,20,31.83a7.24,7.24,0,0,1-.52-2.73,7.14,7.14,0,0,1,1.07-3.83Q22.58,22,27.44,21.9Zm0,2.37a4.81,4.81,0,0,0-3.32,1.18,4.66,4.66,0,0,0-1.57,3.66,4.66,4.66,0,0,0,1.57,3.66A4.84,4.84,0,0,0,27.47,34a4.8,4.8,0,0,0,3.33-1.18A4.64,4.64,0,0,0,32,31a5,5,0,0,0,.37-1.88,4.66,4.66,0,0,0-1.57-3.72A5,5,0,0,0,27.45,24.27Z"/><path class="cls-1" d="M42.18,33.78h7.25a.69.69,0,0,0,.47-.14,1,1,0,0,0,.27-.51h.33v3.6h-.33a1,1,0,0,0-.27-.51.69.69,0,0,0-.47-.14H37.25v-.71l8.1-10.92h-7a.72.72,0,0,0-.48.14,1,1,0,0,0-.27.51h-.33v-3.6h.33a1.12,1.12,0,0,0,.27.51.7.7,0,0,0,.47.14h12v.58Z"/><path class="cls-1" d="M57.11,33.78h7.25a.69.69,0,0,0,.47-.14,1,1,0,0,0,.27-.51h.33v3.6H65.1a1,1,0,0,0-.27-.51.69.69,0,0,0-.47-.14H52.17v-.71l8.1-10.92h-7a.72.72,0,0,0-.48.14,1,1,0,0,0-.27.51h-.33v-3.6h.33a1.12,1.12,0,0,0,.27.51.7.7,0,0,0,.47.14h12v.58Z"/><path class="cls-1" d="M71.21,30v3.82h9a.69.69,0,0,0,.47-.14,1,1,0,0,0,.27-.51h.33v3.6h-.33a1,1,0,0,0-.27-.51.69.69,0,0,0-.47-.14H67.52v-.33a1,1,0,0,0,.51-.27.71.71,0,0,0,.14-.48V23.22a.71.71,0,0,0-.14-.48,1.05,1.05,0,0,0-.51-.26v-.33H79.93A.68.68,0,0,0,80.4,22a1.06,1.06,0,0,0,.27-.51H81v3.6h-.33a1.06,1.06,0,0,0-.27-.51.69.69,0,0,0-.47-.14H71.21v3.31h5.66a.69.69,0,0,0,.47-.14,1,1,0,0,0,.27-.51h.33v3.52H77.6a1.07,1.07,0,0,0-.27-.5.67.67,0,0,0-.47-.15Z"/><path class="cls-1" d="M91.72,24.44V35a.71.71,0,0,0,.14.48,1,1,0,0,0,.51.27v.33H88v-.33a1,1,0,0,0,.51-.27.71.71,0,0,0,.14-.48V24.44H84.35a.7.7,0,0,0-.47.14,1,1,0,0,0-.27.51h-.33v-3.6h.33a1.13,1.13,0,0,0,.27.51.68.68,0,0,0,.46.14H96a.72.72,0,0,0,.48-.14,1,1,0,0,0,.27-.51h.33v3.6h-.33a1,1,0,0,0-.27-.51.72.72,0,0,0-.48-.14Z"/><path class="cls-1" d="M106.81,24.44V35a.71.71,0,0,0,.14.48,1,1,0,0,0,.51.27v.33h-4.35v-.33a1,1,0,0,0,.51-.27.71.71,0,0,0,.14-.48V24.44H99.44a.7.7,0,0,0-.47.14,1,1,0,0,0-.27.51h-.33v-3.6h.33A1.12,1.12,0,0,0,99,22a.68.68,0,0,0,.46.14h11.69a.72.72,0,0,0,.48-.14,1,1,0,0,0,.27-.51h.33v3.6h-.33a1,1,0,0,0-.27-.51.72.72,0,0,0-.48-.14Z"/><path class="cls-1" d="M117.29,30v3.82h9a.69.69,0,0,0,.47-.14,1,1,0,0,0,.27-.51h.33v3.6H127a1,1,0,0,0-.27-.51.69.69,0,0,0-.47-.14H113.59v-.33a1,1,0,0,0,.51-.27.71.71,0,0,0,.14-.48V23.22a.71.71,0,0,0-.14-.48,1.05,1.05,0,0,0-.51-.26v-.33H126a.68.68,0,0,0,.47-.15,1.06,1.06,0,0,0,.27-.51h.33v3.6h-.33a1.06,1.06,0,0,0-.27-.51.69.69,0,0,0-.47-.14h-8.72v3.31h5.66a.69.69,0,0,0,.47-.14,1,1,0,0,0,.27-.51H124v3.52h-.33a1.07,1.07,0,0,0-.27-.5.67.67,0,0,0-.47-.15Z"/><path class="cls-1" d="M27.7,6.06H23.08V8.95a.4.4,0,0,0,.08.27.57.57,0,0,0,.29.15v.19H21V9.37a.6.6,0,0,0,.29-.15.4.4,0,0,0,.08-.27V2.17a.4.4,0,0,0-.08-.27A.6.6,0,0,0,21,1.74V1.56h2.5v.19a.55.55,0,0,0-.29.15.41.41,0,0,0-.08.27V4.74H27.7V2.17a.41.41,0,0,0-.08-.27.55.55,0,0,0-.29-.15V1.56h2.5v.19a.6.6,0,0,0-.29.15.4.4,0,0,0-.08.27V8.95a.4.4,0,0,0,.08.27.6.6,0,0,0,.29.15v.19h-2.5V9.37a.57.57,0,0,0,.29-.15.4.4,0,0,0,.08-.27Z"/><path class="cls-1" d="M37.12,7.52H33.48l-.54,1.13a.94.94,0,0,0-.11.37q0,.26.39.36v.19H30.58V9.37a.71.71,0,0,0,.36-.16,1.61,1.61,0,0,0,.28-.46L34.16,2.6a1.17,1.17,0,0,0,.14-.47q0-.27-.34-.39V1.56H36.8v.19q-.35.1-.35.35a.87.87,0,0,0,.11.39l3,6.16a2.09,2.09,0,0,0,.34.54.74.74,0,0,0,.39.19v.19H37.4V9.37q.39-.06.39-.36a.94.94,0,0,0-.12-.36Zm-.5-1.1-1.3-2.85L34,6.42Z"/><path class="cls-1" d="M41.4,8.94V2.17a.4.4,0,0,0-.08-.27A.6.6,0,0,0,41,1.74V1.56h2.5v.19a.55.55,0,0,0-.29.15.41.41,0,0,0-.08.27V8.94a.41.41,0,0,0,.08.28.57.57,0,0,0,.29.15v.19H41V9.37a.6.6,0,0,0,.29-.15A.41.41,0,0,0,41.4,8.94Z"/><path class="cls-1" d="M47.07,6.29V8.95a.4.4,0,0,0,.08.27.57.57,0,0,0,.29.15v.19H45V9.37a.6.6,0,0,0,.29-.15.4.4,0,0,0,.08-.27V2.17a.41.41,0,0,0-.08-.28A.6.6,0,0,0,45,1.74V1.56h5a7.86,7.86,0,0,1,1.45.11,2.57,2.57,0,0,1,.93.37,1.86,1.86,0,0,1,.69.83,2.7,2.7,0,0,1,.22,1.08q0,2-2.17,2.29l1.55,2.21a5,5,0,0,0,.6.75.76.76,0,0,0,.47.18v.19H50.8V9.37c.2,0,.3-.1.3-.21a1.49,1.49,0,0,0-.27-.51L49.21,6.29Zm0-1.32h2.7a6.87,6.87,0,0,0,.84,0,1.33,1.33,0,0,0,.45-.15.9.9,0,0,0,.45-.87.9.9,0,0,0-.45-.87,1.27,1.27,0,0,0-.45-.15,7.38,7.38,0,0,0-.85,0h-2.7Z"/><path class="cls-1" d="M62.1,2.23l-1,1.88L61,4s0-.07,0-.09-.11-.28-.34-.43a4.18,4.18,0,0,0-2.45-.73,3.59,3.59,0,0,0-1.1.15,1.32,1.32,0,0,0-.56.35.74.74,0,0,0-.21.51c0,.3.18.5.54.61a8.53,8.53,0,0,0,1.21.18l.92.09a7.55,7.55,0,0,1,1.33.24,3.14,3.14,0,0,1,.9.43,2,2,0,0,1,.63.76,2.23,2.23,0,0,1,.23,1,2.28,2.28,0,0,1-.54,1.5A2.93,2.93,0,0,1,60,9.48a6.12,6.12,0,0,1-1.66.22,7,7,0,0,1-3.13-.76,1.67,1.67,0,0,0-.39-.15.49.49,0,0,0-.24.13l-.17-.09.87-2,.17.08V7a.65.65,0,0,0,.25.49,3.2,3.2,0,0,0,1.18.59,5.13,5.13,0,0,0,1.51.25,3.07,3.07,0,0,0,1.33-.26,1.29,1.29,0,0,0,.49-.39.83.83,0,0,0,.18-.51A.59.59,0,0,0,60,6.61a5.76,5.76,0,0,0-1.21-.22l-.9-.09a12.41,12.41,0,0,1-1.28-.18,3.31,3.31,0,0,1-.75-.27A2,2,0,0,1,55,5.06,2.14,2.14,0,0,1,54.71,4a2.21,2.21,0,0,1,.7-1.68,3.83,3.83,0,0,1,2.74-.87,6.2,6.2,0,0,1,1.43.16,10.79,10.79,0,0,1,1.65.57,1.79,1.79,0,0,0,.42.14.48.48,0,0,0,.29-.14Z"/><path class="cls-1" d="M67.72,2.88V8.94a.41.41,0,0,0,.08.28.6.6,0,0,0,.29.15v.19H65.6V9.37a.6.6,0,0,0,.29-.15A.41.41,0,0,0,66,8.94V2.88H63.49a.4.4,0,0,0-.27.08.59.59,0,0,0-.15.29h-.19V1.18h.19a.64.64,0,0,0,.16.29.39.39,0,0,0,.27.08H70.2a.41.41,0,0,0,.28-.08.59.59,0,0,0,.15-.29h.19V3.25h-.19A.59.59,0,0,0,70.48,3a.41.41,0,0,0-.28-.08Z"/><path class="cls-1" d="M76.6,6.21V8.94a.4.4,0,0,0,.08.28.61.61,0,0,0,.29.15v.19H74.47V9.37a.64.64,0,0,0,.3-.15.39.39,0,0,0,.09-.28V6.21L72.27,2.57a3.76,3.76,0,0,0-.52-.63.86.86,0,0,0-.45-.2V1.56h3.16v.19q-.39.06-.39.36a1.26,1.26,0,0,0,.24.46l1.44,2.14,1.48-2.14a1.14,1.14,0,0,0,.24-.47.3.3,0,0,0-.11-.23.54.54,0,0,0-.29-.13V1.56h3.09v.19a.86.86,0,0,0-.45.2,3.76,3.76,0,0,0-.52.63Z"/><path class="cls-1" d="M82.84,8.24h4.92A.41.41,0,0,0,88,8.15a.6.6,0,0,0,.15-.29h.19V9.93h-.19A.6.6,0,0,0,88,9.64a.41.41,0,0,0-.28-.08h-7V9.37A.6.6,0,0,0,81,9.21a.41.41,0,0,0,.08-.28V2.17A.41.41,0,0,0,81,1.9a.6.6,0,0,0-.29-.15V1.56h2.5v.19a.55.55,0,0,0-.29.15.42.42,0,0,0-.08.28Z"/><path class="cls-1" d="M89.59,8.94V2.17a.4.4,0,0,0-.08-.27.6.6,0,0,0-.29-.15V1.56h2.5v.19a.55.55,0,0,0-.29.15.41.41,0,0,0-.08.27V8.94a.41.41,0,0,0,.08.28.57.57,0,0,0,.29.15v.19h-2.5V9.37a.6.6,0,0,0,.29-.15A.41.41,0,0,0,89.59,8.94Z"/><path class="cls-1" d="M100.59,2.23l-1,1.88L99.47,4s0-.07,0-.09-.11-.28-.34-.43a4.18,4.18,0,0,0-2.45-.73,3.59,3.59,0,0,0-1.1.15,1.32,1.32,0,0,0-.56.35.74.74,0,0,0-.21.51c0,.3.18.5.54.61a8.53,8.53,0,0,0,1.21.18l.92.09a7.55,7.55,0,0,1,1.33.24,3.14,3.14,0,0,1,.9.43,2,2,0,0,1,.63.76,2.23,2.23,0,0,1,.23,1,2.28,2.28,0,0,1-.54,1.5,2.93,2.93,0,0,1-1.53.88,6.12,6.12,0,0,1-1.66.22,7,7,0,0,1-3.13-.76,1.67,1.67,0,0,0-.39-.15.49.49,0,0,0-.24.13l-.17-.09.87-2,.17.08V7a.65.65,0,0,0,.25.49,3.2,3.2,0,0,0,1.18.59,5.13,5.13,0,0,0,1.51.25,3.07,3.07,0,0,0,1.33-.26,1.29,1.29,0,0,0,.49-.39.83.83,0,0,0,.18-.51.59.59,0,0,0-.43-.57,5.76,5.76,0,0,0-1.21-.22l-.9-.09a12.41,12.41,0,0,1-1.28-.18,3.31,3.31,0,0,1-.75-.27,2,2,0,0,1-.84-.79A2.14,2.14,0,0,1,93.2,4a2.21,2.21,0,0,1,.7-1.68,3.83,3.83,0,0,1,2.74-.87,6.2,6.2,0,0,1,1.43.16,10.79,10.79,0,0,1,1.65.57,1.79,1.79,0,0,0,.42.14.48.48,0,0,0,.29-.14Z"/><path class="cls-1" d="M106.21,2.88V8.94a.41.41,0,0,0,.08.28.6.6,0,0,0,.29.15v.19h-2.5V9.37a.6.6,0,0,0,.29-.15.41.41,0,0,0,.08-.28V2.88H102a.4.4,0,0,0-.27.08.59.59,0,0,0-.15.29h-.19V1.18h.19a.64.64,0,0,0,.16.29.39.39,0,0,0,.27.08h6.71a.41.41,0,0,0,.28-.08.59.59,0,0,0,.15-.29h.19V3.25h-.19A.59.59,0,0,0,109,3a.41.41,0,0,0-.28-.08Z"/><path class="cls-1" d="M9.76,53.36v2.88a.41.41,0,0,0,.08.28.57.57,0,0,0,.29.15v.19H7.64v-.19a.6.6,0,0,0,.29-.15A.41.41,0,0,0,8,56.24V49.47a.41.41,0,0,0-.08-.28A.6.6,0,0,0,7.64,49v-.19h7.08a.4.4,0,0,0,.27-.08.59.59,0,0,0,.15-.29h.19v2.07h-.19a.59.59,0,0,0-.15-.29.4.4,0,0,0-.27-.08h-5v1.91H13a.4.4,0,0,0,.28-.08.61.61,0,0,0,.15-.29h.19v2h-.19a.61.61,0,0,0-.15-.29.4.4,0,0,0-.28-.08Z"/><path class="cls-1" d="M20.56,48.71a4.7,4.7,0,0,1,3.32,1.13,4.16,4.16,0,0,1,.67,5.2,4.33,4.33,0,0,1-4,1.95,4.68,4.68,0,0,1-3.3-1.13,3.94,3.94,0,0,1-1-1.45,4.16,4.16,0,0,1-.3-1.56,4.1,4.1,0,0,1,.62-2.2A4.37,4.37,0,0,1,20.56,48.71Zm0,1.36a2.76,2.76,0,0,0-1.91.68,2.9,2.9,0,0,0,0,4.2,3,3,0,0,0,3.83,0,2.67,2.67,0,0,0,.69-1,2.84,2.84,0,0,0,.21-1.08,2.67,2.67,0,0,0-.9-2.14A2.88,2.88,0,0,0,20.57,50.07Z"/><path class="cls-1" d="M28.55,53.59v2.65a.4.4,0,0,0,.08.27.57.57,0,0,0,.29.15v.19h-2.5v-.19a.6.6,0,0,0,.29-.15.4.4,0,0,0,.08-.27V49.47a.41.41,0,0,0-.08-.28.6.6,0,0,0-.29-.15v-.19h5a7.86,7.86,0,0,1,1.45.11,2.57,2.57,0,0,1,.93.37,1.86,1.86,0,0,1,.69.83,2.7,2.7,0,0,1,.22,1.08q0,2-2.17,2.29l1.55,2.21a5,5,0,0,0,.6.75.76.76,0,0,0,.47.18v.19H32.28v-.19c.2,0,.3-.1.3-.21a1.49,1.49,0,0,0-.27-.51l-1.62-2.36Zm0-1.32h2.7a6.87,6.87,0,0,0,.84,0,1.33,1.33,0,0,0,.45-.15,1.07,1.07,0,0,0,0-1.73,1.27,1.27,0,0,0-.45-.15,7.38,7.38,0,0,0-.85,0h-2.7Z"/><path class="cls-1" d="M40.43,50.17v6.06a.41.41,0,0,0,.08.28.6.6,0,0,0,.29.15v.19h-2.5v-.19a.6.6,0,0,0,.29-.15.41.41,0,0,0,.08-.28V50.17H36.2a.4.4,0,0,0-.27.08.59.59,0,0,0-.15.29h-.19V48.48h.19a.64.64,0,0,0,.16.29.39.39,0,0,0,.27.08h6.71a.41.41,0,0,0,.28-.08.59.59,0,0,0,.15-.29h.19v2.07h-.19a.59.59,0,0,0-.15-.29.41.41,0,0,0-.28-.08Z"/><path class="cls-1" d="M53.38,51.22l-1.83,4.62a1.6,1.6,0,0,0-.16.45q0,.27.43.38v.19H49.25v-.19c.26-.05.39-.18.39-.4a2.53,2.53,0,0,0-.17-.52l-2.29-5.9a2.15,2.15,0,0,0-.31-.59.7.7,0,0,0-.4-.21v-.19h2.78V49q-.37.08-.37.35a1.22,1.22,0,0,0,.09.39L50.57,54l1.71-4.26a1.3,1.3,0,0,0,.11-.36q0-.27-.39-.35v-.19h2.91V49q-.4.11-.4.38a1.23,1.23,0,0,0,.1.35L56.24,54l1.58-4.16a1.43,1.43,0,0,0,.12-.46c0-.17-.14-.29-.42-.34v-.19h2.75V49a.83.83,0,0,0-.4.21,2.44,2.44,0,0,0-.29.59l-2.29,5.9a2,2,0,0,0-.16.56q0,.29.42.36v.19H54.92v-.19q.41-.06.41-.39a2,2,0,0,0-.18-.53Z"/><path class="cls-1" d="M64.89,48.71a4.7,4.7,0,0,1,3.32,1.13,4.16,4.16,0,0,1,.67,5.2,4.33,4.33,0,0,1-4,1.95,4.68,4.68,0,0,1-3.3-1.13,3.94,3.94,0,0,1-1-1.45,4.16,4.16,0,0,1-.3-1.56,4.1,4.1,0,0,1,.62-2.2A4.37,4.37,0,0,1,64.89,48.71Zm0,1.36a2.76,2.76,0,0,0-1.91.68A2.9,2.9,0,0,0,63,55a3,3,0,0,0,3.83,0,2.67,2.67,0,0,0,.69-1,2.84,2.84,0,0,0,.21-1.08,2.67,2.67,0,0,0-.9-2.14A2.88,2.88,0,0,0,64.89,50.07Z"/><path class="cls-1" d="M72.88,53.59v2.65a.4.4,0,0,0,.08.27.57.57,0,0,0,.29.15v.19h-2.5v-.19a.6.6,0,0,0,.29-.15.4.4,0,0,0,.08-.27V49.47A.41.41,0,0,0,71,49.2a.6.6,0,0,0-.29-.15v-.19h5a7.86,7.86,0,0,1,1.45.11,2.57,2.57,0,0,1,.93.37,1.86,1.86,0,0,1,.69.83,2.7,2.7,0,0,1,.22,1.08q0,2-2.17,2.29l1.55,2.21a5,5,0,0,0,.6.75.76.76,0,0,0,.47.18v.19H76.61v-.19c.2,0,.3-.1.3-.21a1.49,1.49,0,0,0-.27-.51L75,53.59Zm0-1.32h2.7a6.87,6.87,0,0,0,.84,0,1.33,1.33,0,0,0,.45-.15,1.07,1.07,0,0,0,0-1.73,1.27,1.27,0,0,0-.45-.15,7.38,7.38,0,0,0-.85,0h-2.7Z"/><path class="cls-1" d="M84.75,50.17v6.06a.41.41,0,0,0,.08.28.6.6,0,0,0,.29.15v.19h-2.5v-.19a.6.6,0,0,0,.29-.15.41.41,0,0,0,.08-.28V50.17H80.52a.4.4,0,0,0-.27.08.59.59,0,0,0-.15.29h-.19V48.48h.19a.64.64,0,0,0,.16.29.39.39,0,0,0,.27.08h6.71a.41.41,0,0,0,.28-.08.59.59,0,0,0,.15-.29h.19v2.07h-.19a.59.59,0,0,0-.15-.29.41.41,0,0,0-.28-.08Z"/><path class="cls-1" d="M95.38,53.36H90.77v2.88a.4.4,0,0,0,.08.27.57.57,0,0,0,.29.15v.19h-2.5v-.19a.6.6,0,0,0,.29-.15.4.4,0,0,0,.08-.27V49.46a.4.4,0,0,0-.08-.27.6.6,0,0,0-.29-.15v-.19h2.5V49a.55.55,0,0,0-.29.15.41.41,0,0,0-.08.27V52h4.61V49.46a.41.41,0,0,0-.08-.27A.55.55,0,0,0,95,49v-.19h2.5V49a.6.6,0,0,0-.29.15.4.4,0,0,0-.08.27v6.78a.4.4,0,0,0,.08.27.6.6,0,0,0,.29.15v.19H95v-.19a.57.57,0,0,0,.29-.15.4.4,0,0,0,.08-.27Z"/><path class="cls-1" d="M99.37,58.32a2.57,2.57,0,0,0,.69-.62,1.94,1.94,0,0,0,.3-.77A2.08,2.08,0,0,1,100,57a.78.78,0,0,1-.62-.27,1,1,0,0,1-.23-.7,1,1,0,0,1,.24-.69.82.82,0,0,1,.63-.26.91.91,0,0,1,.81.43,1.73,1.73,0,0,1,.25.94,2.74,2.74,0,0,1-1.37,2.25Z"/><path class="cls-1" d="M109.82,50.17v6.06a.41.41,0,0,0,.08.28.6.6,0,0,0,.29.15v.19h-2.5v-.19a.6.6,0,0,0,.29-.15.41.41,0,0,0,.08-.28V50.17h-2.48a.4.4,0,0,0-.27.08.59.59,0,0,0-.15.29H105V48.48h.19a.64.64,0,0,0,.16.29.39.39,0,0,0,.27.08h6.71a.41.41,0,0,0,.28-.08.59.59,0,0,0,.15-.29h.19v2.07h-.19a.59.59,0,0,0-.15-.29.41.41,0,0,0-.28-.08Z"/><path class="cls-1" d="M118.52,52.71l2.41,3.11a4.68,4.68,0,0,0,.57.66,1,1,0,0,0,.48.19v.19h-3.17v-.19q.35-.07.35-.3A.84.84,0,0,0,119,56L117.46,54,116,55.9a1,1,0,0,0-.24.44q0,.29.39.33v.19H113v-.19a.78.78,0,0,0,.42-.15,6,6,0,0,0,.6-.69l2.44-3-2.25-2.91a5.09,5.09,0,0,0-.58-.68.87.87,0,0,0-.46-.14v-.19h3.21V49q-.35.09-.35.36a1,1,0,0,0,.25.47l1.24,1.6,1.29-1.6a1.1,1.1,0,0,0,.28-.5q0-.26-.4-.32v-.19h3.12V49a.78.78,0,0,0-.4.13,7.42,7.42,0,0,0-.62.7Z"/><line class="cls-2" x1="2.31" y1="15.49" x2="127.31" y2="15.49"/><line class="cls-2" x1="2.31" y1="42.73" x2="127.31" y2="42.73"/></svg>